PathFileType	4	(X/Y/Z)	C:\Users\willi\Desktop\Data_PaperCallum_v2\17_Akif\Gait04\marker_experimental_temp.trc
DataRate	CameraRate	NumFrames	NumMarkers	Units	OrigDataRate	OrigDataStartFrame	OrigNumFrames
100.000000	100.000000	6	27	mm	100.000000	0	181
Frame#	Time	C7			T10			Clav			Sternum			Right_Back			PCL_CRAN			PCL_RECHTS			PCL_LINKS			RCL_UL_CRAN			RCL_UL_POST			RCL_UL_ANT			RCL_LL_CRAN			RCL_LL_POST			RCL_LL_ANT			Right_Heel			Right_Toe			Right_M5			LCL_UL_CRAN			LCL_UL_POST			LCL_UL_ANT			LCL_LL_CRAN			LCL_LL_POST			LCL_LL_ANT			Left_Heel			Left_Toe			Left_M5			*26			
		X1	Y1	Z1	X2	Y2	Z2	X3	Y3	Z3	X4	Y4	Z4	X5	Y5	Z5	X6	Y6	Z6	X7	Y7	Z7	X8	Y8	Z8	X9	Y9	Z9	X10	Y10	Z10	X11	Y11	Z11	X12	Y12	Z12	X13	Y13	Z13	X14	Y14	Z14	X15	Y15	Z15	X16	Y16	Z16	X17	Y17	Z17	X18	Y18	Z18	X19	Y19	Z19	X20	Y20	Z20	X21	Y21	Z21	X22	Y22	Z22	X23	Y23	Z23	X24	Y24	Z24	X25	Y25	Z25	X26	Y26	Z26	X27	Y27	Z27	

1	0	1578.760498046875	1422.951904296875	104.1100540161132	1620.771118164063	1204.244995117188	115.903091430664	1442.78271484375	1346.749267578125	128.0448913574218	1385.10595703125	1183.937377929688	153.2758331298827	1603.416381835938	1353.029296875	-9.563098907470801	1616.267333984375	1035.807495117188	121.611961364746	1627.179931640625	976.9088134765626	97.35382080078115	1630.040405273438	976.7859497070314	147.9818878173827	1522.853881835938	734.4696044921876	-37.74308013916025	1545.777465820313	673.6599121093751	-29.85578727722178	1495.884643554688	674.3657226562501	-34.87125015258798	1612.023193359375	386.7410888671876	0.691828012466332	1643.290405273438	329.2986145019532	0.09748630225648354	1593.699340820313	323.8488769531251	1.099583148956201	1699.859985351563	41.38177871704112	92.67238616943349	1499.586181640625	34.63223266601572	88.97545623779288	1544.378540039063	9.806390762329196	32.10845947265616	1464.508056640625	769.4583129882814	313.6328735351561	1452.685668945313	703.7916259765626	309.0868225097655	1409.946899414063	729.3419189453126	316.4831237792968	1410.88525390625	403.435272216797	293.9736328124999	1443.50048828125	345.873016357422	286.4433288574218	1392.125610351563	339.3437500000001	288.2537841796874	1521.618041992188	63.51446533203134	180.699722290039	1330.25732421875	49.37660980224617	234.0901947021484	1382.958251953125	29.39982414245614	276.9181213378906	-88.0599746704104	726.554931640625	-3209.974609375	
2	0.01	1564.943603515625	1419.524536132813	104.1992874145507	1607.406127929688	1201.27685546875	116.8122634887694	1429.034301757813	1343.278930664063	128.9251098632812	1371.785766601563	1180.591918945313	154.1268463134765	1588.974365234375	1349.610717773438	-9.664983749389746	1603.665161132813	1032.635620117188	123.3597335815429	1614.449096679688	973.8370361328126	98.63589477539053	1616.900756835938	973.1900024414064	149.252944946289	1513.586547851563	733.7969970703126	-37.6284065246583	1537.147338867188	673.3500976562501	-29.53465461730966	1487.224365234375	673.4440917968751	-34.74792861938486	1607.228881835938	387.1876525878907	0.9432891011237114	1639.680297851563	330.3363342285157	0.4883901476859042	1589.975341796875	324.0693969726564	1.210309505462549	1699.5	42.4056510925294	93.05030059814443	1499.539672851563	34.34808731079111	88.92725372314445	1544.687622070313	9.81999778747568	32.17805480957022	1452.685424804688	765.6771850585939	312.561309814453	1440.705200195313	700.9381713867189	307.1485595703124	1398.038452148438	726.1103515625001	314.7929687499999	1391.548706054688	399.4353027343751	290.8321838378906	1418.9697265625	340.2357788085939	283.5385437011718	1368.422729492188	337.6247863769532	286.6920776367187	1469.465087890625	54.89739227294931	181.1114501953124	1280.1640625	55.43620300292977	237.6443634033202	1331.34375	30.96776390075692	279.6200561523437	-88.05927276611352	726.553466796875	-3209.963623046875	
3	0.02	1551.086791992188	1416.246215820313	104.4019470214843	1593.89306640625	1198.388549804688	117.7336120605468	1415.209228515625	1339.990600585938	129.850601196289	1358.296997070313	1177.422973632813	155.0043792724609	1574.535888671875	1346.34375	-9.643451690673924	1590.786010742188	1029.56982421875	125.0037231445312	1601.447265625	970.8615112304689	99.86723327636709	1603.533569335938	969.7509765625001	150.4744415283202	1503.994506835938	733.0685424804689	-37.54035186767587	1528.196655273438	672.9790039062501	-29.29496002197275	1478.256958007813	672.4633789062501	-34.68802642822275	1602.093383789063	387.6082763671876	1.089064717292688	1635.672729492188	331.3674621582032	0.7201546430586767	1585.911010742188	324.2597656250001	1.249324798583887	1699.123901367188	43.63016891479503	93.25321197509756	1499.480590820313	34.09901046752939	88.88673400878898	1544.942016601563	9.868885040283297	32.23163223266592	1440.463623046875	761.9492187500001	311.6273193359374	1428.635131835938	697.8958740234376	305.5794982910155	1385.95703125	722.6661987304689	313.4067077636718	1372.384887695313	395.6389465332032	287.8641967773437	1394.971069335938	335.0145263671876	280.8334655761718	1345.186279296875	336.1062927246094	285.1663513183593	1419.793212890625	47.6179962158204	181.3852996826171	1232.749633789063	62.03540039062508	240.660675048828	1282.296630859375	33.43187713623055	281.8604736328124	-88.05857849121118	726.552001953125	-3209.952880859375	
4	0.03	1537.190185546875	1413.116943359375	104.7179489135741	1580.232421875	1195.580688476563	118.6670608520507	1401.3076171875	1336.884399414063	130.8212432861327	1344.639892578125	1174.430908203125	155.9082641601562	1560.100952148438	1343.228637695313	-9.498601913452244	1577.630126953125	1026.61083984375	126.5439300537108	1588.174438476563	967.9827270507814	101.0478897094726	1589.939086914063	966.4693603515626	151.6464385986327	1494.076904296875	732.2842407226564	-37.47825622558603	1518.924682617188	672.5465698242189	-29.13588905334482	1468.981323242188	671.4239501953126	-34.69118499755869	1596.617309570313	388.0036010742189	1.129404425620935	1631.266723632813	332.391571044922	0.7937214374541237	1581.50732421875	324.4205017089845	1.216743826866053	1698.733520507813	45.0557975769044	93.28186798095693	1499.407104492188	33.885597229004	88.85351562499991	1545.14013671875	9.952380180358981	32.2687110900878	1427.840942382813	758.2772827148439	310.8299560546874	1416.464111328125	694.6713256835939	304.3753356933593	1373.694091796875	719.0180664062501	312.3203430175781	1353.394775390625	392.0466003417969	285.0698242187499	1371.510620117188	330.2078247070313	278.3278808593749	1322.41845703125	334.7822570800782	283.6732788085937	1372.646240234375	41.6480255126954	181.518829345703	1188.038452148438	69.1322326660157	243.1175384521484	1235.844116210938	36.75192260742195	283.6235351562499	-88.0578994750979	726.550537109375	-3209.9423828125	
5	0.04	1523.25390625	1410.137573242188	105.1470336914062	1566.424438476563	1192.854248046875	119.6124725341796	1387.329711914063	1333.961059570313	131.8367156982421	1330.814575195313	1171.616333007813	156.8379974365234	1545.669921875	1340.266235351563	-9.230731010437106	1564.198364257813	1023.759826660156	127.9804229736327	1574.6318359375	965.2019042968751	102.1779785156249	1576.118041992188	963.3461914062501	152.769073486328	1483.832153320313	731.4446411132814	-37.4402732849122	1509.329223632813	672.0526733398439	-29.05520439147958	1459.39501953125	670.3264160156251	-34.75636672973642	1590.801513671875	388.3750305175782	1.064912080764673	1626.461181640625	333.4077758789064	0.7115515470503765	1576.76708984375	324.5530090332032	1.112818121909999	1698.33251953125	46.68413162231456	93.13835144042959	1499.31494140625	33.70912551879892	88.82649993896476	1545.278564453125	10.06825256347666	32.28820800781241	1414.813598632813	754.6693725585939	310.1666564941405	1404.16259765625	691.2822265625001	303.5238647460936	1361.226806640625	715.1892089843751	311.5227661132812	1334.581420898438	388.6593322753907	282.4496154785156	1348.60400390625	325.8116455078126	276.0208740234374	1300.127319335938	333.6358032226563	282.2038269042968	1328.135986328125	36.91454696655281	181.5059967041015	1146.091918945313	76.61557769775398	244.961196899414	1192.056884765625	40.82124710083015	284.8696289062499	-88.05723571777368	726.549072265625	-3209.931884765625	
6	0.05	1509.277954101563	1407.3095703125	105.6886520385741	1552.470336914063	1190.211669921875	120.5695343017577	1373.27587890625	1331.221801757813	132.896255493164	1316.822265625	1168.98095703125	157.792495727539	1531.242797851563	1337.458374023438	-8.840473175048922	1550.492919921875	1021.019836425781	129.3134307861327	1560.821533203125	962.5216674804689	103.2578048706054	1562.072387695313	960.3837890625001	153.8427124023437	1473.256103515625	730.5503540039064	-37.42278671264658	1499.40576171875	671.4974365234376	-29.04851150512705	1449.4931640625	669.1723632812501	-34.88145828247079	1584.646728515625	388.7254943847657	0.8965555429457648	1621.254638671875	334.4155883789064	0.4781611263750991	1571.695190429688	324.6603393554689	0.9378454089163771	1697.927124023438	48.51913452148448	92.82669067382803	1499.19677734375	33.57120513916025	88.8036346435546	1545.351684570313	10.21125411987314	32.28862380981436	1401.374633789063	751.1411132812501	309.6325683593749	1391.676513671875	687.7631835937501	303.0009155273437	1348.513916015625	711.2243041992189	310.9919433593749	1315.951049804688	385.4794311523438	280.0047302246093	1326.28076171875	321.8179016113282	273.9094238281249	1278.330932617188	332.6333007812501	280.7414245605468	1286.462524414063	33.28661346435555	181.3365478515624	1107.016845703125	84.2788391113282	246.0999908447265	1151.061279296875	45.44146347045906	285.5310058593749	-88.05657958984399	726.5476684570313	-3209.921630859375	
